# xmcd
#
# Track frame offsets:
#	150
#	19621
#	42503
#	62397
#	86508
#	108562
#	126697
#	152147
#	174501
#
# Disc length: 2636 seconds
#
# Revision: 1
# Processed by: cddbd v1.5.2PL0 Copyright (c) Steve Scherf et al.
# Submitted via: EZCDAudioConverter 8.0.2.1
#
DISCID=730a4a09
DTITLE=Lm.JB.Nguyễn Sang - Cùng Mẹ Con Dâng
DYEAR=2008
DGENRE=Contemporary Pop
TTITLE0=Ave Maria
TTITLE1=Dâng
TTITLE2=Lời Mẹ nhắn nhủ
TTITLE3=Ca khúc trầm hương
TTITLE4=Lạy Mẹ Fatima
TTITLE5=Tương lai cuộc đời
TTITLE6=Nữ Vương Mần Côi
TTITLE7=Trên đĩa Thánh
TTITLE8=Dâng ngọn lửa hồng
EXTD=
EXTT0=
EXTT1=
EXTT2=
EXTT3=
EXTT4=
EXTT5=
EXTT6=
EXTT7=
EXTT8=
PLAYORDER=
